<svg width="23" height="24" viewBox="0 0 23 24" fill="none" xmlns="http://www.w3.org/2000/svg">
<path d="M3.19679 1.49998H1.49999C1.31434 1.49998 1.13629 1.42623 1.00501 1.29495C0.873738 1.16367 0.799988 0.985627 0.799988 0.799976C0.799988 0.614324 0.873738 0.436276 1.00501 0.305001C1.13629 0.173725 1.31434 0.0999756 1.49999 0.0999756H3.74419C3.90033 0.100019 4.05198 0.152267 4.17501 0.24841C4.29804 0.344554 4.3854 0.479073 4.42319 0.630575L7.07899 11.2706C7.11913 11.449 7.08788 11.636 6.99192 11.7916C6.89596 11.9473 6.74292 12.0592 6.56551 12.1034C6.3881 12.1477 6.20042 12.1208 6.0426 12.0285C5.88478 11.9361 5.76934 11.7857 5.72099 11.6094L3.19679 1.49998Z" fill="#D0D5DD"/>
<path fill-rule="evenodd" clip-rule="evenodd" d="M19.693 8.5H8.50698C8.29698 8.5 8.08698 8.5238 7.88118 8.57C7.15297 8.74059 6.52199 9.1927 6.12633 9.82739C5.73066 10.4621 5.60253 11.2277 5.76998 11.9566L6.86618 16.802C7.00543 17.425 7.35258 17.9821 7.85054 18.3816C8.34849 18.7811 8.96758 18.9992 9.60598 19H18.5968C19.2348 18.9983 19.8533 18.7799 20.3509 18.3805C20.8484 17.9812 21.1955 17.4245 21.3352 16.802L22.4314 11.9552C22.5274 11.5425 22.5291 11.1134 22.4363 10.7C22.3435 10.2865 22.1586 9.8993 21.8954 9.56721C21.6322 9.23512 21.2975 8.96668 20.9162 8.78191C20.5348 8.59713 20.1167 8.50077 19.693 8.5Z" fill="#D0D5DD"/>
<path d="M21.8 21.45C21.8 22.0998 21.5419 22.7229 21.0824 23.1824C20.6229 23.6419 19.9998 23.9 19.35 23.9C18.7002 23.9 18.077 23.6419 17.6176 23.1824C17.1581 22.7229 16.9 22.0998 16.9 21.45C16.9 20.8002 17.1581 20.1771 17.6176 19.7176C18.077 19.2581 18.7002 19 19.35 19C19.9998 19 20.6229 19.2581 21.0824 19.7176C21.5419 20.1771 21.8 20.8002 21.8 21.45ZM12 21.45C12 21.7717 11.9366 22.0903 11.8135 22.3876C11.6904 22.6848 11.5099 22.9549 11.2824 23.1824C11.0549 23.4099 10.7848 23.5904 10.4875 23.7135C10.1903 23.8366 9.87171 23.9 9.54998 23.9C9.22824 23.9 8.90965 23.8366 8.6124 23.7135C8.31515 23.5904 8.04507 23.4099 7.81756 23.1824C7.59006 22.9549 7.40959 22.6848 7.28647 22.3876C7.16335 22.0903 7.09998 21.7717 7.09998 21.45C7.09998 20.8002 7.3581 20.1771 7.81756 19.7176C8.27703 19.2581 8.9002 19 9.54998 19C10.1998 19 10.8229 19.2581 11.2824 19.7176C11.7419 20.1771 12 20.8002 12 21.45Z" fill="#D0D5DD"/>
</svg>
