<svg width="20" height="22" viewBox="0 0 20 22" fill="none" xmlns="http://www.w3.org/2000/svg">
<path d="M11.408 0.497988C11.0087 0.177601 10.512 0.00299072 10 0.00299072C9.48802 0.00299072 8.99135 0.177601 8.592 0.497988L0.842 6.71499C0.579213 6.92582 0.367126 7.19297 0.221393 7.49672C0.0756593 7.80048 4.69258e-07 8.13308 0 8.46999V19.75C0 20.3467 0.237053 20.919 0.65901 21.341C1.08097 21.7629 1.65326 22 2.25 22H4.75C5.34674 22 5.91903 21.7629 6.34099 21.341C6.76295 20.919 7 20.3467 7 19.75V14.25C7 13.56 7.56 13 8.25 13H11.75C12.44 13 13 13.56 13 14.25V19.75C13 20.3467 13.2371 20.919 13.659 21.341C14.081 21.7629 14.6533 22 15.25 22H17.75C18.3467 22 18.919 21.7629 19.341 21.341C19.7629 20.919 20 20.3467 20 19.75V8.46999C20 8.13308 19.9243 7.80048 19.7786 7.49672C19.6329 7.19297 19.4208 6.92582 19.158 6.71499L11.408 0.497988Z" fill="#475E3E"/>
</svg>
