<svg width="22" height="18" viewBox="0 0 22 18" fill="none" xmlns="http://www.w3.org/2000/svg">
<path d="M-6.10352e-05 15.3333C-6.10352e-05 13.9188 0.579401 12.5623 1.61085 11.5621C2.6423 10.5619 4.04125 10 5.49994 10H16.4999C17.9586 10 19.3576 10.5619 20.389 11.5621C21.4205 12.5623 21.9999 13.9188 21.9999 15.3333C21.9999 16.0406 21.7102 16.7189 21.1945 17.219C20.6788 17.719 19.9793 18 19.2499 18H2.74994C2.02059 18 1.32112 17.719 0.805395 17.219C0.28967 16.7189 -6.10352e-05 16.0406 -6.10352e-05 15.3333Z" fill="#D0D5DD"/>
<path d="M10.9999 8C13.2091 8 14.9999 6.20914 14.9999 4C14.9999 1.79086 13.2091 0 10.9999 0C8.7908 0 6.99994 1.79086 6.99994 4C6.99994 6.20914 8.7908 8 10.9999 8Z" fill="#D0D5DD"/>
</svg>
